<mxfile host="app.diagrams.net" modified="2023-08-01T08:31:40.601Z" agent="Mozilla/5.0 (Windows NT 10.0; Win64; x64) AppleWebKit/537.36 (KHTML, like Gecko) Chrome/115.0.0.0 Safari/537.36" etag="EfL6FFpX-2ls9blRbZsw" version="21.6.6" type="github">
  <diagram name="페이지-1" id="J571OEbCFwc51k-4Cu00">
    <mxGraphModel dx="1450" dy="934" grid="0" gridSize="10" guides="1" tooltips="1" connect="1" arrows="1" fold="1" page="0" pageScale="1" pageWidth="827" pageHeight="1169" math="0" shadow="0">
      <root>
        <mxCell id="0" />
        <mxCell id="1" parent="0" />
        <mxCell id="7i5C8J33opApPA5719FY-1" value="사용자" style="whiteSpace=wrap;html=1;align=center;fontSize=16;" parent="1" vertex="1">
          <mxGeometry x="209" y="-350" width="100" height="40" as="geometry" />
        </mxCell>
        <mxCell id="7i5C8J33opApPA5719FY-2" value="반려동물" style="whiteSpace=wrap;html=1;align=center;fontSize=16;" parent="1" vertex="1">
          <mxGeometry x="209" y="18" width="100" height="40" as="geometry" />
        </mxCell>
        <mxCell id="7i5C8J33opApPA5719FY-3" value="활동량" style="whiteSpace=wrap;html=1;align=center;fontSize=16;" parent="1" vertex="1">
          <mxGeometry x="595" y="202" width="100" height="40" as="geometry" />
        </mxCell>
        <mxCell id="7i5C8J33opApPA5719FY-4" value="사료" style="whiteSpace=wrap;html=1;align=center;fontSize=16;" parent="1" vertex="1">
          <mxGeometry x="16" y="376" width="100" height="40" as="geometry" />
        </mxCell>
        <mxCell id="7i5C8J33opApPA5719FY-5" value="자이로 센서" style="whiteSpace=wrap;html=1;align=center;fontSize=16;" parent="1" vertex="1">
          <mxGeometry x="595" y="18" width="100" height="40" as="geometry" />
        </mxCell>
        <mxCell id="7i5C8J33opApPA5719FY-7" value="권장 섭취량" style="whiteSpace=wrap;html=1;align=center;fontSize=16;" parent="1" vertex="1">
          <mxGeometry x="-177" y="18" width="100" height="40" as="geometry" />
        </mxCell>
        <mxCell id="7i5C8J33opApPA5719FY-8" value="섭취" style="shape=rhombus;perimeter=rhombusPerimeter;whiteSpace=wrap;html=1;align=center;fontSize=16;" parent="1" vertex="1">
          <mxGeometry x="6" y="192" width="120" height="60" as="geometry" />
        </mxCell>
        <mxCell id="7i5C8J33opApPA5719FY-11" value="등록" style="shape=rhombus;perimeter=rhombusPerimeter;whiteSpace=wrap;html=1;align=center;fontSize=16;" parent="1" vertex="1">
          <mxGeometry x="199" y="-176" width="120" height="60" as="geometry" />
        </mxCell>
        <mxCell id="7i5C8J33opApPA5719FY-14" value="측정" style="shape=rhombus;perimeter=rhombusPerimeter;whiteSpace=wrap;html=1;align=center;fontSize=16;" parent="1" vertex="1">
          <mxGeometry x="392" y="8" width="120" height="60" as="geometry" />
        </mxCell>
        <mxCell id="7i5C8J33opApPA5719FY-16" value="측정" style="shape=rhombus;perimeter=rhombusPerimeter;whiteSpace=wrap;html=1;align=center;fontSize=16;" parent="1" vertex="1">
          <mxGeometry x="392" y="192" width="120" height="60" as="geometry" />
        </mxCell>
        <mxCell id="7i5C8J33opApPA5719FY-17" value="제공" style="shape=rhombus;perimeter=rhombusPerimeter;whiteSpace=wrap;html=1;align=center;fontSize=16;" parent="1" vertex="1">
          <mxGeometry x="6" y="8" width="120" height="60" as="geometry" />
        </mxCell>
        <mxCell id="5uZk4ny-lzLwnKXBKO4f-1" value="" style="endArrow=none;html=1;rounded=0;dashed=1;dashPattern=1 2;exitX=0.682;exitY=1.02;exitDx=0;exitDy=0;exitPerimeter=0;entryX=0;entryY=0.5;entryDx=0;entryDy=0;" edge="1" parent="1" source="7i5C8J33opApPA5719FY-2" target="7i5C8J33opApPA5719FY-16">
          <mxGeometry relative="1" as="geometry">
            <mxPoint x="179" y="108" as="sourcePoint" />
            <mxPoint x="339" y="108" as="targetPoint" />
            <Array as="points">
              <mxPoint x="277" y="222" />
            </Array>
          </mxGeometry>
        </mxCell>
        <mxCell id="5uZk4ny-lzLwnKXBKO4f-2" value="1" style="resizable=0;html=1;whiteSpace=wrap;align=right;verticalAlign=bottom;" connectable="0" vertex="1" parent="5uZk4ny-lzLwnKXBKO4f-1">
          <mxGeometry x="1" relative="1" as="geometry">
            <mxPoint x="-103" as="offset" />
          </mxGeometry>
        </mxCell>
        <mxCell id="5uZk4ny-lzLwnKXBKO4f-3" value="" style="endArrow=none;html=1;rounded=0;dashed=1;dashPattern=1 2;exitX=0.25;exitY=1;exitDx=0;exitDy=0;entryX=1;entryY=0.5;entryDx=0;entryDy=0;" edge="1" parent="1" source="7i5C8J33opApPA5719FY-2" target="7i5C8J33opApPA5719FY-8">
          <mxGeometry relative="1" as="geometry">
            <mxPoint x="179" y="108" as="sourcePoint" />
            <mxPoint x="339" y="108" as="targetPoint" />
            <Array as="points">
              <mxPoint x="234" y="222" />
            </Array>
          </mxGeometry>
        </mxCell>
        <mxCell id="5uZk4ny-lzLwnKXBKO4f-4" value="N" style="resizable=0;html=1;whiteSpace=wrap;align=right;verticalAlign=bottom;" connectable="0" vertex="1" parent="5uZk4ny-lzLwnKXBKO4f-3">
          <mxGeometry x="1" relative="1" as="geometry">
            <mxPoint x="107" as="offset" />
          </mxGeometry>
        </mxCell>
        <mxCell id="5uZk4ny-lzLwnKXBKO4f-6" value="" style="endArrow=none;html=1;rounded=0;dashed=1;dashPattern=1 2;exitX=0.5;exitY=0;exitDx=0;exitDy=0;entryX=0.5;entryY=1;entryDx=0;entryDy=0;" edge="1" parent="1" source="7i5C8J33opApPA5719FY-4" target="7i5C8J33opApPA5719FY-8">
          <mxGeometry relative="1" as="geometry">
            <mxPoint x="179" y="208" as="sourcePoint" />
            <mxPoint x="339" y="208" as="targetPoint" />
          </mxGeometry>
        </mxCell>
        <mxCell id="5uZk4ny-lzLwnKXBKO4f-7" value="N" style="resizable=0;html=1;whiteSpace=wrap;align=right;verticalAlign=bottom;" connectable="0" vertex="1" parent="5uZk4ny-lzLwnKXBKO4f-6">
          <mxGeometry x="1" relative="1" as="geometry">
            <mxPoint y="62" as="offset" />
          </mxGeometry>
        </mxCell>
        <mxCell id="5uZk4ny-lzLwnKXBKO4f-8" value="" style="endArrow=none;html=1;rounded=0;dashed=1;dashPattern=1 2;exitX=0;exitY=0.5;exitDx=0;exitDy=0;entryX=1;entryY=0.5;entryDx=0;entryDy=0;" edge="1" parent="1" source="7i5C8J33opApPA5719FY-3" target="7i5C8J33opApPA5719FY-16">
          <mxGeometry relative="1" as="geometry">
            <mxPoint x="179" y="108" as="sourcePoint" />
            <mxPoint x="339" y="108" as="targetPoint" />
          </mxGeometry>
        </mxCell>
        <mxCell id="5uZk4ny-lzLwnKXBKO4f-9" value="N" style="resizable=0;html=1;whiteSpace=wrap;align=right;verticalAlign=bottom;" connectable="0" vertex="1" parent="5uZk4ny-lzLwnKXBKO4f-8">
          <mxGeometry x="1" relative="1" as="geometry">
            <mxPoint x="42" as="offset" />
          </mxGeometry>
        </mxCell>
        <mxCell id="5uZk4ny-lzLwnKXBKO4f-10" value="" style="endArrow=none;html=1;rounded=0;dashed=1;dashPattern=1 2;exitX=0;exitY=0.5;exitDx=0;exitDy=0;entryX=1;entryY=0.5;entryDx=0;entryDy=0;" edge="1" parent="1" source="7i5C8J33opApPA5719FY-2" target="7i5C8J33opApPA5719FY-17">
          <mxGeometry relative="1" as="geometry">
            <mxPoint x="179" y="-92" as="sourcePoint" />
            <mxPoint x="339" y="-92" as="targetPoint" />
          </mxGeometry>
        </mxCell>
        <mxCell id="5uZk4ny-lzLwnKXBKO4f-11" value="1" style="resizable=0;html=1;whiteSpace=wrap;align=right;verticalAlign=bottom;" connectable="0" vertex="1" parent="5uZk4ny-lzLwnKXBKO4f-10">
          <mxGeometry x="1" relative="1" as="geometry">
            <mxPoint x="42" as="offset" />
          </mxGeometry>
        </mxCell>
        <mxCell id="5uZk4ny-lzLwnKXBKO4f-12" value="" style="endArrow=none;html=1;rounded=0;dashed=1;dashPattern=1 2;exitX=1;exitY=0.5;exitDx=0;exitDy=0;entryX=0;entryY=0.5;entryDx=0;entryDy=0;" edge="1" parent="1" source="7i5C8J33opApPA5719FY-7" target="7i5C8J33opApPA5719FY-17">
          <mxGeometry relative="1" as="geometry">
            <mxPoint x="179" y="208" as="sourcePoint" />
            <mxPoint x="339" y="208" as="targetPoint" />
          </mxGeometry>
        </mxCell>
        <mxCell id="5uZk4ny-lzLwnKXBKO4f-13" value="N" style="resizable=0;html=1;whiteSpace=wrap;align=right;verticalAlign=bottom;" connectable="0" vertex="1" parent="5uZk4ny-lzLwnKXBKO4f-12">
          <mxGeometry x="1" relative="1" as="geometry">
            <mxPoint x="-41" as="offset" />
          </mxGeometry>
        </mxCell>
        <mxCell id="5uZk4ny-lzLwnKXBKO4f-14" value="" style="endArrow=none;html=1;rounded=0;dashed=1;dashPattern=1 2;exitX=1;exitY=0.5;exitDx=0;exitDy=0;entryX=0;entryY=0.5;entryDx=0;entryDy=0;" edge="1" parent="1" source="7i5C8J33opApPA5719FY-2" target="7i5C8J33opApPA5719FY-14">
          <mxGeometry relative="1" as="geometry">
            <mxPoint x="179" y="108" as="sourcePoint" />
            <mxPoint x="339" y="108" as="targetPoint" />
          </mxGeometry>
        </mxCell>
        <mxCell id="5uZk4ny-lzLwnKXBKO4f-15" value="1" style="resizable=0;html=1;whiteSpace=wrap;align=right;verticalAlign=bottom;" connectable="0" vertex="1" parent="5uZk4ny-lzLwnKXBKO4f-14">
          <mxGeometry x="1" relative="1" as="geometry">
            <mxPoint x="-41" as="offset" />
          </mxGeometry>
        </mxCell>
        <mxCell id="5uZk4ny-lzLwnKXBKO4f-16" value="" style="endArrow=none;html=1;rounded=0;dashed=1;dashPattern=1 2;exitX=0;exitY=0.5;exitDx=0;exitDy=0;entryX=1;entryY=0.5;entryDx=0;entryDy=0;" edge="1" parent="1" source="7i5C8J33opApPA5719FY-5" target="7i5C8J33opApPA5719FY-14">
          <mxGeometry relative="1" as="geometry">
            <mxPoint x="179" y="108" as="sourcePoint" />
            <mxPoint x="339" y="108" as="targetPoint" />
          </mxGeometry>
        </mxCell>
        <mxCell id="5uZk4ny-lzLwnKXBKO4f-17" value="N" style="resizable=0;html=1;whiteSpace=wrap;align=right;verticalAlign=bottom;" connectable="0" vertex="1" parent="5uZk4ny-lzLwnKXBKO4f-16">
          <mxGeometry x="1" relative="1" as="geometry">
            <mxPoint x="42" as="offset" />
          </mxGeometry>
        </mxCell>
        <mxCell id="5uZk4ny-lzLwnKXBKO4f-18" value="" style="endArrow=none;html=1;rounded=0;dashed=1;dashPattern=1 2;exitX=0.5;exitY=1;exitDx=0;exitDy=0;entryX=0.5;entryY=0;entryDx=0;entryDy=0;" edge="1" parent="1" source="7i5C8J33opApPA5719FY-1" target="7i5C8J33opApPA5719FY-11">
          <mxGeometry relative="1" as="geometry">
            <mxPoint x="179" y="-92" as="sourcePoint" />
            <mxPoint x="339" y="-92" as="targetPoint" />
          </mxGeometry>
        </mxCell>
        <mxCell id="5uZk4ny-lzLwnKXBKO4f-19" value="1" style="resizable=0;html=1;whiteSpace=wrap;align=right;verticalAlign=bottom;" connectable="0" vertex="1" parent="5uZk4ny-lzLwnKXBKO4f-18">
          <mxGeometry x="1" relative="1" as="geometry">
            <mxPoint y="-67" as="offset" />
          </mxGeometry>
        </mxCell>
        <mxCell id="5uZk4ny-lzLwnKXBKO4f-20" value="" style="endArrow=none;html=1;rounded=0;dashed=1;dashPattern=1 2;exitX=0.5;exitY=1;exitDx=0;exitDy=0;entryX=0.5;entryY=0;entryDx=0;entryDy=0;" edge="1" parent="1" source="7i5C8J33opApPA5719FY-11" target="7i5C8J33opApPA5719FY-2">
          <mxGeometry relative="1" as="geometry">
            <mxPoint x="179" y="-92" as="sourcePoint" />
            <mxPoint x="339" y="-92" as="targetPoint" />
          </mxGeometry>
        </mxCell>
        <mxCell id="5uZk4ny-lzLwnKXBKO4f-21" value="N" style="resizable=0;html=1;whiteSpace=wrap;align=right;verticalAlign=bottom;" connectable="0" vertex="1" parent="5uZk4ny-lzLwnKXBKO4f-20">
          <mxGeometry x="1" relative="1" as="geometry">
            <mxPoint y="-67" as="offset" />
          </mxGeometry>
        </mxCell>
      </root>
    </mxGraphModel>
  </diagram>
</mxfile>
